<svg width="36" height="36" viewBox="0 0 36 36" fill="none" xmlns="http://www.w3.org/2000/svg">
<circle cx="18" cy="18" r="17.5" stroke="#6D7D7D"/>
<g clip-path="url(#clip0_2_62)">
<path d="M18.0028 14.8554C16.2638 14.8554 14.861 16.2581 14.861 17.9972C14.861 19.7362 16.2638 21.139 18.0028 21.139C19.7419 21.139 21.1446 19.7362 21.1446 17.9972C21.1446 16.2581 19.7419 14.8554 18.0028 14.8554ZM18.0028 20.0397C16.879 20.0397 15.9603 19.1237 15.9603 17.9972C15.9603 16.8706 16.8763 15.9546 18.0028 15.9546C19.1294 15.9546 20.0454 16.8706 20.0454 17.9972C20.0454 19.1237 19.1267 20.0397 18.0028 20.0397ZM22.006 14.7269C22.006 15.1343 21.6778 15.4597 21.2731 15.4597C20.8657 15.4597 20.5403 15.1315 20.5403 14.7269C20.5403 14.3222 20.8685 13.994 21.2731 13.994C21.6778 13.994 22.006 14.3222 22.006 14.7269ZM24.0868 15.4706C24.0403 14.489 23.8161 13.6194 23.097 12.903C22.3806 12.1866 21.511 11.9624 20.5294 11.9132C19.5177 11.8558 16.4853 11.8558 15.4735 11.9132C14.4946 11.9597 13.6251 12.1839 12.906 12.9003C12.1868 13.6167 11.9653 14.4862 11.9161 15.4679C11.8587 16.4796 11.8587 19.512 11.9161 20.5237C11.9626 21.5054 12.1868 22.3749 12.906 23.0913C13.6251 23.8077 14.4919 24.0319 15.4735 24.0812C16.4853 24.1386 19.5177 24.1386 20.5294 24.0812C21.511 24.0347 22.3806 23.8104 23.097 23.0913C23.8134 22.3749 24.0376 21.5054 24.0868 20.5237C24.1442 19.512 24.1442 16.4823 24.0868 15.4706ZM22.7798 21.6093C22.5665 22.1452 22.1536 22.5581 21.6149 22.7741C20.8083 23.094 18.8942 23.0202 18.0028 23.0202C17.1114 23.0202 15.1946 23.0913 14.3907 22.7741C13.8548 22.5608 13.4419 22.1479 13.2259 21.6093C12.906 20.8026 12.9798 18.8886 12.9798 17.9972C12.9798 17.1058 12.9087 15.189 13.2259 14.3851C13.4392 13.8491 13.8521 13.4362 14.3907 13.2202C15.1974 12.9003 17.1114 12.9741 18.0028 12.9741C18.8942 12.9741 20.811 12.903 21.6149 13.2202C22.1509 13.4335 22.5638 13.8464 22.7798 14.3851C23.0997 15.1917 23.0259 17.1058 23.0259 17.9972C23.0259 18.8886 23.0997 20.8054 22.7798 21.6093Z" fill="white"/>
</g>
<defs>
<clipPath id="clip0_2_62">
<rect width="14" height="14" fill="white" transform="translate(11 11)"/>
</clipPath>
</defs>
</svg>
