<svg width="114" height="12" viewBox="0 0 114 12" fill="none" xmlns="http://www.w3.org/2000/svg">
<path d="M0.0823714 11V0.695999H1.82637V11H0.0823714ZM10.728 11V0.695999H12.264L17.64 8.28V0.695999H19.368V11H17.832L12.472 3.432V11H10.728ZM30.9519 11V2.056H27.6559V0.695999H35.9759V2.056H32.6959V11H30.9519ZM44.2536 11V0.695999H51.4376V2.056H45.9976V5.176H50.8456V6.52H45.9976V9.656H51.4376V11H44.2536ZM59.9305 11V0.695999H64.6665C65.8185 0.695999 66.6558 0.994666 67.1785 1.592C67.7118 2.17867 67.9785 2.97867 67.9785 3.992C67.9785 4.71733 67.7972 5.336 67.4345 5.848C67.0718 6.36 66.5492 6.71733 65.8665 6.92C66.0585 7.05867 66.2078 7.208 66.3145 7.368C66.4212 7.528 66.5278 7.74133 66.6345 8.008L67.9305 11H66.1385L64.8745 8.12C64.7572 7.84267 64.6132 7.64533 64.4425 7.528C64.2825 7.41067 64.0052 7.352 63.6105 7.352H61.6745V11H59.9305ZM61.6745 5.944H64.2025C64.8318 5.944 65.3278 5.78933 65.6905 5.48C66.0532 5.17067 66.2345 4.67467 66.2345 3.992C66.2345 2.70133 65.6105 2.056 64.3625 2.056H61.6745V5.944ZM76.5761 11V0.695999H78.3201V11H76.5761ZM91.7817 11.16C90.1497 11.16 88.9284 10.7333 88.1177 9.88C87.3071 9.016 86.9017 7.68267 86.9017 5.88C86.9017 4.00267 87.3071 2.64267 88.1177 1.8C88.9284 0.957333 90.1497 0.535999 91.7817 0.535999C93.4244 0.535999 94.6457 0.957333 95.4457 1.8C96.2564 2.64267 96.6617 4.00267 96.6617 5.88C96.6617 7.68267 96.2564 9.016 95.4457 9.88C94.6457 10.7333 93.4244 11.16 91.7817 11.16ZM91.7817 9.688C92.8591 9.688 93.6484 9.39467 94.1497 8.808C94.6617 8.21067 94.9177 7.23467 94.9177 5.88C94.9177 4.45067 94.6617 3.45333 94.1497 2.888C93.6484 2.312 92.8591 2.024 91.7817 2.024C90.7151 2.024 89.9257 2.312 89.4137 2.888C88.9124 3.45333 88.6617 4.45067 88.6617 5.88C88.6617 7.23467 88.9124 8.21067 89.4137 8.808C89.9257 9.39467 90.7151 9.688 91.7817 9.688ZM105.242 11V0.695999H109.978C111.13 0.695999 111.968 0.994666 112.49 1.592C113.024 2.17867 113.29 2.97867 113.29 3.992C113.29 4.71733 113.109 5.336 112.746 5.848C112.384 6.36 111.861 6.71733 111.178 6.92C111.37 7.05867 111.52 7.208 111.626 7.368C111.733 7.528 111.84 7.74133 111.946 8.008L113.242 11H111.45L110.186 8.12C110.069 7.84267 109.925 7.64533 109.754 7.528C109.594 7.41067 109.317 7.352 108.922 7.352H106.986V11H105.242ZM106.986 5.944H109.514C110.144 5.944 110.64 5.78933 111.002 5.48C111.365 5.17067 111.546 4.67467 111.546 3.992C111.546 2.70133 110.922 2.056 109.674 2.056H106.986V5.944Z" fill="white"/>
</svg>
