<svg width="27" height="27" viewBox="0 0 27 27" fill="none" xmlns="http://www.w3.org/2000/svg">
<path d="M8.36145 9.58225C10.0255 14.1219 11.7483 15.9332 16.131 17.8624L14.2317 20.5299C9.19896 18.1204 6.69228 14.0589 5.5117 10.8893L8.36145 9.58225Z" fill="white"/>
<path d="M9.75746 3.31496C10.6473 3.31148 11.3239 4.05191 11.2632 4.89033C11.1678 6.20971 11.2694 7.16163 11.543 8.34157C11.6933 8.98971 11.3533 9.64799 10.8129 10.072C10.0845 10.6435 9.52804 11.3717 9.08577 11.9985C8.47277 12.8674 6.3632 12.805 5.89666 11.8584C4.93786 9.91316 4.28809 6.32931 5.68821 3.90799C5.90814 3.52766 6.35096 3.32828 6.80981 3.32649L9.75746 3.31496Z" fill="white"/>
<path d="M23.2637 17.71C23.3744 16.8761 22.6774 16.1528 21.7888 16.1088C20.3904 16.0396 19.402 15.8299 18.1946 15.4314C17.5313 15.2125 16.7985 15.4522 16.2878 15.9079C15.5994 16.522 14.7671 16.9562 14.0549 17.2954C13.0679 17.7657 12.8798 19.751 13.8187 20.3023C15.7482 21.4351 19.4373 22.4753 22.151 21.4538C22.5772 21.2934 22.84 20.9022 22.8971 20.4722L23.2637 17.71Z" fill="white"/>
</svg>
